
<global>
amp_veltrack=0
ampeg_attack=0.002
ampeg_release=0.35
</global>

<group>
group_label=PP
lpc_hicc1=42
lpc_locc1=0

<region>
end=324161
hikey=g#4
hivel=127
lokey=g4
loop_end=271152
loop_mode=loop_continuous
loop_start=67271
loop_xfade=38206
lovel=1
lpc=JI0kQQ6zy8GsEthBHYiawXS2b0FRLlLBmhwpQRnrAcErM8xAma66wE7s2kBdX+zADvOpQP3/+r/WVMi+ua2/P/XSAsCeDV9A7mmDwMOzMkCzfLK/embOP90Q6r/I5ks/
lpc_rms=-47.79
offset=10450
pitch_keycenter=g#4
sample=Solocello_trill_perf4th_PP_G#4.opus
</region>

<region>
end=374400
hikey=g#3
hivel=127
lokey=g3
loop_end=271245
loop_mode=loop_continuous
loop_start=82583
loop_xfade=44127
lovel=1
lpc=E8uYQT5YOsLvoiJC//qKwU3rLUFasCLBkGirQMGPrcCvSflA0Xf7wDpMwEDZn/S/mUbDv0/BVECMF4jAXREtQIcv3b3E1EI/QNchwAWrAkBscqC/PHEFQFswBMArUwM/
lpc_rms=-45.72
offset=10323
pitch_keycenter=g#3
sample=Solocello_trill_perf4th_PP_G#3.opus
</region>

<region>
end=374400
hikey=g#2
hivel=127
lokey=g2
loop_end=282626
loop_mode=loop_continuous
loop_start=81870
loop_xfade=44127
lovel=1
lpc=lioRQu4Uu8KaRqdCKcsVwqQv/UFDkP7BmS9oQb7X/sBxUDpByHKNwWpEkUEeNqzAyqXZwF5OF0GgYAnB2ZHGQBq+HMDBWzJAKF0hwNhVmb9RaiU/qkMfQHzLIsAZrWA/
lpc_rms=-40.43
offset=3680
pitch_keycenter=g#2
sample=Solocello_trill_perf4th_PP_G#2.opus
</region>

<region>
end=366136
hikey=G6
hivel=127
lokey=f5
loop_end=274922
loop_mode=loop_continuous
loop_start=81799
loop_xfade=43153
lovel=1
lpc=kXceQXuercEzeY9B6v8Awd3YokCjX7HANIWTQLQo478JPlE/3+wVwDrVWUCj7hrAlky8PqGsXj6W6+0+s4qIPoqvgb+zuMU/2NHev2fN3D6/tEo/8cNuPp1/Pb/RgqE9
lpc_rms=-50.78
offset=6184
pitch_keycenter=F#5
sample=Solocello_trill_perf4th_PP_F#5.opus
</region>

<region>
end=374333
hikey=f#4
hivel=127
lokey=f4
loop_end=291891
loop_mode=loop_continuous
loop_start=76017
loop_xfade=44120
lovel=1
lpc=+EwSQfQzrsHPabFBiKF7wdL0REECQyzBkrARQRQd4sCXssRA+xO1wCx4q0CvH6PAxJkLQDiRXT+Tq6m/hwDLP9giSsCZZphAhpaXwFT/U0A2BOm/+tSlPy2ukr81Mhg/
lpc_rms=-50.26
offset=10509
pitch_keycenter=f#4
sample=Solocello_trill_perf4th_PP_F#4.opus
</region>

<region>
end=355393
hikey=f#3
hivel=127
lokey=f3
loop_end=269810
loop_mode=loop_continuous
loop_start=66977
loop_xfade=41887
lovel=1
lpc=toSuQaHLYsJmemFCgsICwhl5uEGMTZ3BX+5aQfvzRsH2B11B+vlbwZZzP0HxiPrAL12jP8MFoED+rN/AxqDDQBq3oMA2WVFAnzZNP+6cWcAeDShAxLyEwISAmEDkzt6/
lpc_rms=-41.82
pitch_keycenter=f#3
sample=Solocello_trill_perf4th_PP_F#3.opus
</region>

<region>
end=354588
hikey=f#2
hivel=127
lokey=f2
loop_end=255323
loop_mode=loop_continuous
loop_start=67695
loop_xfade=41792
lovel=1
lpc=yJxAQjrU48JdoaxCIjLbwW/irUGjNJrBSbLVQFDO+sBR4/9A4m0NwXvSK0Hu+6PAZQUIwKmlP0G3L0XBJ/AJQDVLHkAysC/AzAGzQBxVC8FE0OtAl6OBP3UMC8H6yZ9A
lpc_rms=-41.58
pitch_keycenter=f#2
sample=Solocello_trill_perf4th_PP_F#2.opus
</region>

<region>
end=332295
hikey=e5
hivel=127
lokey=d#5
loop_end=277956
loop_mode=loop_continuous
loop_start=60436
loop_xfade=39165
lovel=1
lpc=W/GOQd6+JMJEyx1CS5bLwe2dokFSV4bBgT0SQWI9NsCF+zBAfGBTwEpxHkCwqzPAcVXiP9BSPEBPm8XAQJWmQOpDB8AFwPk/wckpv3kdur+2Mvg/KIAJwOotBkAYIOu+
lpc_rms=-46.17
pitch_keycenter=e5
sample=Solocello_trill_perf4th_PP_E5.opus
</region>

<region>
end=320064
hikey=e4
hivel=127
lokey=d#4
loop_end=267725
loop_mode=loop_continuous
loop_start=66778
loop_xfade=37723
lovel=1
lpc=/Qp4QSVjIMLWVixCdq/0wfpUwkEWAKbBXBtWQUMd/cCFZMZAqMKlwAabkEDdt0PA/xkmPhUMqz8l0Ly/MiZSQNGem8B4NYhAD3MXwDn/Xr5rhZw/eMEZPmVyeb9akQk/
lpc_rms=-44.62
offset=5254
pitch_keycenter=e4
sample=Solocello_trill_perf4th_PP_E4.opus
</region>

<region>
end=339989
hikey=e3
hivel=127
lokey=d#3
loop_end=284392
loop_mode=loop_continuous
loop_start=59880
loop_xfade=40072
lovel=1
lpc=KSizQXizbsI2v3ZClf0TwuzSxEGde6PBZ1h6Qa8YfMGSbptBB8agwTvLg0FrATzBNM5+QE6+nUB8xfHAWPynQDqmYMCTgkxANFIfwFboIkCYqIPAu4s7QISdhL45JUy+
lpc_rms=-41.32
pitch_keycenter=e3
sample=Solocello_trill_perf4th_PP_E3.opus
</region>

<region>
end=353718
hikey=e2
hivel=127
lokey=d#2
loop_end=295875
loop_mode=loop_continuous
loop_start=78186
loop_xfade=41690
lovel=1
lpc=eRFGQu/+zMKTmXRCZD94wSxfoEGTIFzB71OkP32NxL4YVJLAqaO7P1eoTEB+XnNAo40RwcgyQUEsl6fAt2BEwJqBZr/3AMlA/rNBwPQkFMATXR9AsY5hQOYgIcEK4blA
lpc_rms=-41.67
pitch_keycenter=e2
sample=Solocello_trill_perf4th_PP_E2.opus
</region>

<region>
end=338810
hikey=d5
hivel=127
lokey=c#5
loop_end=283405
loop_mode=loop_continuous
loop_start=68006
loop_xfade=39933
lovel=1
lpc=WPwtQab11sE0yOFBo0aZwbQwYEFZvTLBeUH9QOgL18BGsttAY+fSwJ5EDEE1HxbBES6CQMAnCz5XO4U8Lz6lPL8EQ7/IuPc//8Dqv8Mafz5xfak/tRhwv6zJS74kra8+
lpc_rms=-48.55
pitch_keycenter=d5
sample=Solocello_trill_perf4th_PP_D5.opus
</region>

<region>
end=374400
hikey=d4
hivel=127
lokey=c#4
loop_end=287602
loop_mode=loop_continuous
loop_start=79135
loop_xfade=44127
lovel=1
lpc=2YMKQQLGrcFvCLhBPhhvwflJIUGpBQfBbwrSQM4Vq8AlA5xA1UePwErPo0CP97vAvKhRQJ0GTz/flgvA4lAfQHqwaMBmLJRAPCWBwCnsFUCvkhTAiJ1iQH2bJMAqeRY/
lpc_rms=-48.40
offset=11569
pitch_keycenter=d4
sample=Solocello_trill_perf4th_PP_D4.opus
</region>

<region>
end=342776
hikey=d3
hivel=127
lokey=c#3
loop_end=286723
loop_mode=loop_continuous
loop_start=73496
loop_xfade=40400
lovel=1
lpc=pKWvQfUbYsIzB11CIznywcSFoEFJ5IrB1YxBQcmFMcGvATtBn6MhwW5mCEGAtMrAEP6Mv2TrDUGnJgnBUqKhQEy2pMB25bFA37Jcv/tsNcAOK1U/Wt1HvlMKrj816Se/
lpc_rms=-43.55
pitch_keycenter=d3
sample=Solocello_trill_perf4th_PP_D3.opus
</region>

<region>
end=370939
hikey=d2
hivel=127
lokey=c#2
loop_end=256121
loop_mode=loop_continuous
loop_start=75263
loop_xfade=43720
lovel=1
lpc=pjUJQiwLl8I27EVCl6pHwcQAfEHs3WTBGgO0QHAQ5MDACYBA/aPHv5RklEDYvU3AzsiMwHkxNkH7T63AIPk6wEzd8zxQHFRAbOCFP2ZafcBgSg8/mUBgQEBMrsBctjlA
lpc_rms=-47.15
offset=12481
pitch_keycenter=d2
sample=Solocello_trill_perf4th_PP_D2.opus
</region>

<region>
end=362399
hikey=c5
hivel=127
lokey=b4
loop_end=268720
loop_mode=loop_continuous
loop_start=67560
loop_xfade=42713
lovel=1
lpc=m8pKQVpf/8EslwdC+luywaHPZ0GD1DrBbm4eQU8R/sCXbslAaNDEwDQ59kCBMOrAfahYQON8FT91Wde/W9icP96rqb/ZxhZA7HMUwE2N0T+ufIa+sEjvvr3RAb/4xmg/
lpc_rms=-49.54
pitch_keycenter=c5
sample=Solocello_trill_perf4th_PP_C5.opus
</region>

<region>
end=374319
hikey=c4
hivel=127
lokey=b3
loop_end=264785
loop_mode=loop_continuous
loop_start=82186
loop_xfade=44118
lovel=1
lpc=frkbQY3uvcEnnMVB1BaHwaHZVUElI1TBx4EyQbmqBMH43dBA2L69wIkYykD1Tb7ArvY/QFrcNb8JDr8+N/YCP0q88b9Q8y9AAMAYwDqLpD8uFhO/XHwXPyLQb7/Ngjs/
lpc_rms=-47.60
offset=23651
pitch_keycenter=c4
sample=Solocello_trill_perf4th_PP_C4.opus
</region>

<region>
end=294100
hikey=c3
hivel=127
lokey=b2
loop_end=246007
loop_mode=loop_continuous
loop_start=63050
loop_xfade=34663
lovel=1
lpc=8GXEQV3+g8I694RCE80TwvUB3UGTm8jBLspVQZEsFMEC8DxBx9hTwaD9T0EajwXBfQf5vvrWAEElQRnBF0HEQPhhJcBQk7w/vgokPXzKC7/wHNa/7x3dP2F3dD/HI5a/
lpc_rms=-41.02
offset=2446
pitch_keycenter=c3
sample=Solocello_trill_perf4th_PP_C3.opus
</region>

<region>
end=315472
hivel=127
key=c2
loop_end=263884
loop_mode=loop_continuous
loop_start=81174
loop_xfade=37182
lovel=1
lpc=ZEm4QisSW8OBEyZD4Pc4wkTTBkIbARHC/PkSQUEJkD8m2WDACW8YwU+Cn0G1PYPAHqNDwfw7tEE4FZfBGTlbQLsAAEAqZJ5ANuQnwQ2yPUAw5C1BB41JwB3UYME/SBRB
lpc_rms=-36.51
sample=Solocello_trill_perf4th_PP_C2.opus
</region>

<region>
end=359687
hikey=a#4
hivel=127
lokey=a4
loop_end=277709
loop_mode=loop_continuous
loop_start=69861
loop_xfade=42393
lovel=1
lpc=V4cFQYnglcG4spBBqQM+wXdiDkESYN7AwXGWQKpkVMCF4CBAvI4dwJ45VED5QhDA7cvCvGAPsj+rRhDAV+4HQEWQZL/EcSM/3jSWvjGakryU1e0+k5jhv93rC0C3uRS/
lpc_rms=-50.91
pitch_keycenter=a#4
sample=Solocello_trill_perf4th_PP_A#4.opus
</region>

<region>
end=370869
hikey=a#3
hivel=127
lokey=a3
loop_end=277767
loop_mode=loop_continuous
loop_start=71142
loop_xfade=43712
lovel=1
lpc=uR2dQXZROMKOTxRCXZ5NwZ8g9EDeIPXAtLUkQOwIUsAzJMlAQ4ekwH9qNEBP1UO/ory4v71efECG257AUDxYQKImNb++3EC+j1x7vcd5wj4544+/9mljP7phOT8mu2i/
lpc_rms=-45.49
pitch_keycenter=a#3
sample=Solocello_trill_perf4th_PP_A#3.opus
</region>

<region>
end=367850
hikey=a#2
hivel=127
lokey=a2
loop_end=290330
loop_mode=loop_continuous
loop_start=81566
loop_xfade=43356
lovel=1
lpc=6q3RQZehi8LjYoVC//0BwhkqykGL083BWMZXQQTG+cCblSJBEjVdwV3RbkE5l/bAilcvwOIfA0Fv2wLB6U60QHE0TcCdYzdAVzLRvyyyDb9pzJG/LAk8QFUgsr98rO49
lpc_rms=-42.50
offset=8042
pitch_keycenter=a#2
sample=Solocello_trill_perf4th_PP_A#2.opus
</region>
</group>

<group>
group_label=MF
lpc_hicc1=84
lpc_locc1=43

<region>
end=303164
hikey=g#4
hivel=127
lokey=g4
loop_end=253588
loop_mode=loop_continuous
loop_start=78007
loop_xfade=35731
lovel=1
lpc=9SDJQLk+VsEjblNBwP8bwdnfAkH4hOXAgUaxQHuPS8C3tpA/k+Utv5jQDz+Uz08+QQCov9Bmyz/7KAa/r7rgvr0bH7ypaNc+dXPHPjZaFL/VEpI/uw24vxaoVj+cmyg9
lpc_rms=-31.67
pitch_keycenter=g#4
sample=Solocello_trill_perf4th_MF_G#4.opus
</region>

<region>
end=328059
hikey=g#3
hivel=127
lokey=g3
loop_end=274412
loop_mode=loop_continuous
loop_start=84413
loop_xfade=38666
lovel=1
lpc=0yJYQT6J/8GBcuxB6E6NwQbtXEG87zXB2JXoQHvixcDTJsFAidqxwD4wt0B7o4vAFX8av+inl0At0JXA574+QBeVGMBMcBpAJ+ymv9QJjz/6nri/zmVzv5oIRkCkBL+/
lpc_rms=-31.03
pitch_keycenter=g#3
sample=Solocello_trill_perf4th_MF_G#3.opus
</region>

<region>
end=302924
hikey=g#2
hivel=127
lokey=g2
loop_end=253388
loop_mode=loop_continuous
loop_start=77945
loop_xfade=35703
lovel=1
lpc=DROqQY3RUsLKrT1CnEa6wXCBiUFnsWfBCibaQAX/uMCy1s1A7fu2wI556kA5F9zAJpp7PydTjUBe+FrA2XLdPebfUL+RPltAfqRjv20/IsB6rihATG6cwOyxyEC7VyzA
lpc_rms=-26.16
pitch_keycenter=g#2
sample=Solocello_trill_perf4th_MF_G#2.opus
</region>

<region>
end=304579
hikey=G6
hivel=127
lokey=f5
loop_end=254772
loop_mode=loop_continuous
loop_start=78371
loop_xfade=35898
lovel=1
lpc=eiBUQRvuzsH4sr9B4c+Zwd1ol0GFsWjBJMcaQR+kwMAEhLFAc/GFwBUXZUD5ITPAiLivvs+zVEAVLK49R+AIwANQmz+RvtE+I2uBP9eAAL8fVBK/HlztPoYVrT6iLYA/
lpc_rms=-27.58
pitch_keycenter=F#5
sample=Solocello_trill_perf4th_MF_F#5.opus
</region>

<region>
end=286857
hikey=f#4
hivel=127
lokey=f4
loop_end=239948
loop_mode=loop_continuous
loop_start=73811
loop_xfade=33809
lovel=1
lpc=zW4XQQr8ocFmA5RBmE89wfJuDUES0enAPnemQGsSSsAKlwhAo9RDwPNXm0B4HY7AA6CpP0xHPD702NC+WOwBP8bbGb9KvZ8/n3lSv/0syb50mZM/BciFPX5Gr78zBZA/
lpc_rms=-28.60
pitch_keycenter=f#4
sample=Solocello_trill_perf4th_MF_F#4.opus
</region>

<region>
end=292354
hikey=f#3
hivel=127
lokey=f3
loop_end=244546
loop_mode=loop_continuous
loop_start=75226
loop_xfade=34457
lovel=1
lpc=DgywQbykT8LpjC9COHaSwemeT0HE0GPBbvrNQFoFIsDjNnZA/GNUwKuNFEDqdhC/KEiVwJftBUFz7NzA2Qt0QKOn+r8Eloc9yUJeQImPeMAtdQJAhBUIwHfA+T9aLgq/
lpc_rms=-27.60
pitch_keycenter=f#3
sample=Solocello_trill_perf4th_MF_F#3.opus
</region>

<region>
end=298373
hikey=f#2
hivel=127
lokey=f2
loop_end=249581
loop_mode=loop_continuous
loop_start=76774
loop_xfade=35167
lovel=1
lpc=z74ZQq17x8IejLFC1iACwg6oiUHaZJnBe20PQUCTu8COymZAS3UeQMHz9L+D1j5AqoBCwS7blUENPzTBbS6uvlv5dz+vOEtAJb7cvCc6xsA/Rf5A3h6ywM1d7T81C2C8
lpc_rms=-23.61
pitch_keycenter=f#2
sample=Solocello_trill_perf4th_MF_F#2.opus
</region>

<region>
end=309334
hikey=e5
hivel=127
lokey=d#5
loop_end=258749
loop_mode=loop_continuous
loop_start=79595
loop_xfade=36459
lovel=1
lpc=jjrzQLikbsH0vlBBeckKwaKg9UDa08nAZg6IQP4qX8B7ZTdAxBKZv55ihj9fMpi/Woi3PbaHoj8jJ3C/tEXhvtuurT9uFkK/+zaYP94/rL9y9Lo/P/biv2FdBEAyrk2/
lpc_rms=-29.20
pitch_keycenter=e5
sample=Solocello_trill_perf4th_MF_E5.opus
</region>

<region>
end=332471
hikey=e4
hivel=127
lokey=d#4
loop_end=267567
loop_mode=loop_continuous
loop_start=69198
loop_xfade=39186
lovel=1
lpc=+BQgQU5RusHnvrxB+x2NwX4McEHF+ETBGsPuQPThdsDsbRlAhtsNwOMLRkD3viTA92uwv1VjiUBh+GXAbSEgQOW7JsAdDu0/vf9Wvw5CDT+O/N4+K5lev8G4XzzMsQQ/
lpc_rms=-30.53
pitch_keycenter=e4
sample=Solocello_trill_perf4th_MF_E4.opus
</region>

<region>
end=317159
hikey=e3
hivel=127
lokey=d#3
loop_end=265295
loop_mode=loop_continuous
loop_start=81608
loop_xfade=37381
lovel=1
lpc=5FiLQaxsJsLRThdCx8KpwSHMf0EEXVPBohsLQc3zAcGW/hJBK1sbwc0JFkGhPcXAZE6evy/I40ASTLbAEsWBPh1XlT+amBE/9PYCP4mqiL+Im3O/m9yCPVdUD0D89Ze/
lpc_rms=-27.49
pitch_keycenter=e3
sample=Solocello_trill_perf4th_MF_E3.opus
</region>

<region>
end=306236
hikey=e2
hivel=127
lokey=d#2
loop_end=256158
loop_mode=loop_continuous
loop_start=78798
loop_xfade=36093
lovel=1
lpc=/NEXQnZhtsJK0oZC8HlxwV/OckEAN5zBKbXFQAM/1MApJLtA6SJsPV3MoEBNf+fA8mkFwFAtz0AJlYc+wjCBwDSzHkD6sxfAitiWQK6Tr8BV0VNAD94uwI9aSUAAZ7W/
lpc_rms=-22.81
pitch_keycenter=e2
sample=Solocello_trill_perf4th_MF_E2.opus
</region>

<region>
end=291724
hikey=d5
hivel=127
lokey=c#5
loop_end=244019
loop_mode=loop_continuous
loop_start=75063
loop_xfade=34383
lovel=1
lpc=jTbIQNTSRMFu5S9BSsnhwDeIqEC1FILAbIJZQE5OHcC/CN0/aN0FwGrgHkAn+bO/uiK2vs/WtT/Qeb+/SDDiP/0bp78Fqmo/enM+v1EgVD9Gmwi+Dm7mvW8zkz7J6Gc9
lpc_rms=-32.83
pitch_keycenter=d5
sample=Solocello_trill_perf4th_MF_D5.opus
</region>

<region>
end=310092
hikey=d4
hivel=127
lokey=c#4
loop_end=259383
loop_mode=loop_continuous
loop_start=79790
loop_xfade=36548
lovel=1
lpc=4ioAQd9Ck8EPuY9BSLRBwe7AGUG/Ru/ATjdvQGEEgL/Su609tf05v77cwT+BIZS/JCorv4i72D+C0pa98loDwDbq5j80DKO/I8PaP5bAqL9u1pM/21y4vxv+kT8nNnC+
lpc_rms=-32.67
pitch_keycenter=d4
sample=Solocello_trill_perf4th_MF_D4.opus
</region>

<region>
end=304122
hikey=d3
hivel=127
lokey=c#3
loop_end=254390
loop_mode=loop_continuous
loop_start=78254
loop_xfade=35844
lovel=1
lpc=g9SMQf6DKcJNURlCw/6owfW7iEFOOXnBKv0OQdFNp8D9xa9Ab9mywJC/ukC9GprAfMGtv/lQu0AEjkvAjfnFvuY4YD+n3WC+Y2i1PnK66L4AYXY/oYlPwPpSe0B0KcG/
lpc_rms=-27.03
pitch_keycenter=d3
sample=Solocello_trill_perf4th_MF_D3.opus
</region>

<region>
end=331368
hikey=d2
hivel=127
lokey=c#2
loop_end=261363
loop_mode=loop_continuous
loop_start=71397
loop_xfade=39056
lovel=1
lpc=NqkHQmvensIrF2ZCv/hRwRE6UEEEGJPB9SMZQf0x/MB+rSJAvophQOaZ6j+YF0a/e7DnwCzssUDx/5pAr2IHwYcdKEDJxqA/Bx8xP4FQDMCbjmJAwgjDwAwdjkCnPIa/
lpc_rms=-27.44
pitch_keycenter=d2
sample=Solocello_trill_perf4th_MF_D2.opus
</region>

<region>
end=348052
hikey=c5
hivel=127
lokey=b4
loop_end=275981
loop_mode=loop_continuous
loop_start=69224
loop_xfade=41022
lovel=1
lpc=ExLuQGT0cMHRjmBBdkItwW2WIkGqeQLBfBqxQOt3csAku/U/ri9dv7EshT8o89++aYPqvyLmNUDPOK2/DLcNP0ZKEL9HlUQ+yx8fPx8AeL61YNM+NAQOv3U4mb6bNFg/
lpc_rms=-31.66
pitch_keycenter=c5
sample=Solocello_trill_perf4th_MF_C5.opus
</region>

<region>
end=295301
hikey=c4
hivel=127
lokey=b3
loop_end=247011
loop_mode=loop_continuous
loop_start=75984
loop_xfade=34805
lovel=1
lpc=G05PQc4X7cHtbd5BC5CAwXl8OkF4WTrBmm4NQTgtwMBvc55AI6K3wOcctkDDeRvAuOkwwAs5k0AawGbA3rQkQEbF17/ZCQJAwBwbwGTSEkAqAbu/LF+cP+r0rr+nsWk/
lpc_rms=-27.61
pitch_keycenter=c4
sample=Solocello_trill_perf4th_MF_C4.opus
</region>

<region>
end=318076
hikey=c3
hivel=127
lokey=b2
loop_end=266062
loop_mode=loop_continuous
loop_start=81844
loop_xfade=37489
lovel=1
lpc=BzqkQe0sTMJ6ojlCE+W6wdCHkUHzZ4jBliYUQSDmvsBS88dAE4fZwA6kAkGteenAuEqWP3QEoECuiFTA8tLlv/shyj/2GA5AQvVtv1yFMsDciURAyWuFwIacq0CxKh/A
lpc_rms=-28.56
pitch_keycenter=c3
sample=Solocello_trill_perf4th_MF_C3.opus
</region>

<region>
end=303860
hivel=127
key=c2
loop_end=254171
loop_mode=loop_continuous
loop_start=78186
loop_xfade=35814
lovel=1
lpc=3EJpQqugEMN5dupC2yAPwmxTwEGcn+jBulQmQdyu98CETAhBRIqMvzKLd0C4xhnAcExawQ6DyEGlZznBTGKpwEBVBEAiS9A//I7GQBQlBMFGl41AEauewJhoUEC8aEO+
lpc_rms=-24.44
sample=Solocello_trill_perf4th_MF_C2.opus
</region>

<region>
end=282736
hikey=a#4
hivel=127
lokey=a4
loop_end=236501
loop_mode=loop_continuous
loop_start=72751
loop_xfade=33324
lovel=1
lpc=PXrLQMGqP8EOQCRB4mPYwN9Gu0DwCbLAnLiHQMmqKMDdm68/yoOPv8LPnj+KiTm+PxCNv1ygnj7Ap1A/0Zl2vsSmWb4pCFQ/+U1gv6p8mj/je2q/UjZCP/oaSb7m3A++
lpc_rms=-31.89
pitch_keycenter=a#4
sample=Solocello_trill_perf4th_MF_A#4.opus
</region>

<region>
end=308545
hikey=a#3
hivel=127
lokey=a3
loop_end=258089
loop_mode=loop_continuous
loop_start=79392
loop_xfade=36366
lovel=1
lpc=ThNTQfTr9cG0i+NBFoiRwexYdEFfY0jBXTvzQLsWu8A4zdRAPMX9wD7AA0FhKrvAB9HjPpdTikD7JYDAJNONPzawVL+aWq8/dFYzP4Nlp79TtyW+bp1Ev87yxD/C3q2+
lpc_rms=-29.90
pitch_keycenter=a#3
sample=Solocello_trill_perf4th_MF_A#3.opus
</region>

<region>
end=332638
hikey=a#2
hivel=127
lokey=a2
loop_end=266809
loop_mode=loop_continuous
loop_start=73137
loop_xfade=39205
lovel=1
lpc=ie6rQaxNVcIaCUBCSNK/wfRAl0HLtojBp/sGQdJIpsAXqcpAlRz7wBMqBEEK9azAGq8Xv5Jau0AybJfAoazGu0EkGr70kmtAAZzWvy/S5b+PgQlAyMeFwP6mpUBm3QXA
lpc_rms=-29.83
pitch_keycenter=a#2
sample=Solocello_trill_perf4th_MF_A#2.opus
</region>
</group>

<group>
group_label=FF
lpc_hicc1=127
lpc_locc1=85

<region>
end=320908
hikey=g#4
hivel=127
lokey=g4
loop_end=268431
loop_mode=loop_continuous
loop_start=82573
loop_xfade=37823
lovel=1
lpc=6ZqyQOL+OsHs6SxBq3zwwFfezkAckazAO9BLQAHAyL+0PYU/v5C4v4cSBUCVyui/ioLbPqIlMz+kxCi/NWEKP5QIXr9xB0s/6/KjvOx+mz6KoSO/t/qRPpKhx77zrvE+
lpc_rms=-28.10
pitch_keycenter=g#4
sample=Solocello_trill_perf4th_FF_G#4.opus
</region>

<region>
end=309749
hikey=g#3
hivel=127
lokey=g3
loop_end=259097
loop_mode=loop_continuous
loop_start=79701
loop_xfade=36508
lovel=1
lpc=TTZHQTRt28HepKdBsTftwIzTpEB10c3AiCKhQFC7msDxuZlAOl6XwLGTrUA8SGLAKUQfv5zrREB0h5W/2AU/v1nVQb/73eU/XC7BPgEOqb/+5/4+/u4Ov10jeb1ls64+
lpc_rms=-28.64
pitch_keycenter=g#3
sample=Solocello_trill_perf4th_FF_G#3.opus
</region>

<region>
end=308022
hikey=g#2
hivel=127
lokey=g2
loop_end=257652
loop_mode=loop_continuous
loop_start=79257
loop_xfade=36304
lovel=1
lpc=6T/SQXctg8J1EWJCKXyfwfBlLEGONHHBlVEoQTT60sDIOtNAI48AwaoUHkFMOdTA/3CGwF9EJ0FhAXTAQ5IDwB4mS79053dAJT9cv0tbM8DYOP4/gKVkv7LVxj+/qnO/
lpc_rms=-25.76
pitch_keycenter=g#2
sample=Solocello_trill_perf4th_FF_G#2.opus
</region>

<region>
end=302965
hikey=G6
hivel=127
lokey=f5
loop_end=253422
loop_mode=loop_continuous
loop_start=77956
loop_xfade=35708
lovel=1
lpc=AvyLQN8R7MCL0K1AcShewLpnbkCn1gHAbxA3P20yo78lwAlAfXXJv7da4z/FRZu/z9G3vinCqz+G+A+/7pmqPndoyr33vg+/w3nhPrwWkD/0WDW/AVt1PkCkRb8WCFo/
lpc_rms=-28.73
pitch_keycenter=F#5
sample=Solocello_trill_perf4th_FF_F#5.opus
</region>

<region>
end=344419
hikey=f#4
hivel=127
lokey=f4
loop_end=274020
loop_mode=loop_continuous
loop_start=74970
loop_xfade=40594
lovel=1
lpc=QBfXQJNKWsHnbEBBXkYLwe4H+0ClkcbAezyDQJXcQcDv4+g/1Qe5v7GNH0AwcxrA2W2JPmn/pD9S0JS/cRgRP01wTL+03oQ/NVEpv0svEj9xQBS/DohMP2nj9b4ZvX4+
lpc_rms=-26.60
pitch_keycenter=f#4
sample=Solocello_trill_perf4th_FF_F#4.opus
</region>

<region>
end=349327
hikey=f#3
hivel=127
lokey=f3
loop_end=277510
loop_mode=loop_continuous
loop_start=68686
loop_xfade=41173
lovel=1
lpc=ZaiVQRYCK8IHCApCRHNPweTBEkEu7TrBFivRQHpEMsDBvCNAFn6DwIi5vEDIs5DA6Mn0PvWaA0D8bLq/+COYP4lD0b/e64Y/4kTmPzvFMMCeWZ4/1Iqlvik0tz7fNZ2+
lpc_rms=-27.58
pitch_keycenter=f#3
sample=Solocello_trill_perf4th_FF_F#3.opus
</region>

<region>
end=311835
hikey=f#2
hivel=127
lokey=f2
loop_end=260841
loop_mode=loop_continuous
loop_start=80238
loop_xfade=36753
lovel=1
lpc=+DT7QUMCm8LMeIhCw/H2wbsrqUEzq5bBI0zyQE0cgcD3b1xAt44KwKonzUDdjMHAnnhnwEeNEUF5VRvAH6D+v+FREMCsII5Ae2eyPzZl3cB4V+dAHg7RwPnNdkAbSUK/
lpc_rms=-24.98
pitch_keycenter=f#2
sample=Solocello_trill_perf4th_FF_F#2.opus
</region>

<region>
end=295582
hikey=e5
hivel=127
lokey=d#5
loop_end=247246
loop_mode=loop_continuous
loop_start=76056
loop_xfade=34838
lovel=1
lpc=I2KOQMb5A8HWid5ANH2QwPVKekANQB3AyZ2GPxwgvb9Q7RlAb2QBwF7TCkDe7BXAdNykP71/8T3QQlo+8lf0vsv0Yjx8bR4/Vxg5v4s9mD9I7oe/Ze4FP8W/Aj5qDam9
lpc_rms=-29.87
pitch_keycenter=e5
sample=Solocello_trill_perf4th_FF_E5.opus
</region>

<region>
end=306351
hikey=e4
hivel=127
lokey=d#4
loop_end=256254
loop_mode=loop_continuous
loop_start=78827
loop_xfade=36107
lovel=1
lpc=xFUBQZCwi8GjdIBBCjgnwU+u/0Du7NXAX7aJQJ60C8DV5po/I2O/v6Vu+j9WfqO/fvyMvwh0RkC2TzLAgV62P5gWe7/4TWA/jkAWv0B92z5Fmf690FACPxa3Z7/1IyE/
lpc_rms=-24.86
pitch_keycenter=e4
sample=Solocello_trill_perf4th_FF_E4.opus
</region>

<region>
end=312082
hikey=e3
hivel=127
lokey=d#3
loop_end=261048
loop_mode=loop_continuous
loop_start=80302
loop_xfade=36783
lovel=1
lpc=r0KcQRseOMKWgCBC/QiowciGg0E3ulnB17i8QDuRbcDOpMxAXsH6wPMQDEHixvHA9E28Pqb3pUDmn1PAGPBGvtinoj6JyY0/ap0sP9GiKsDGMxFAdko3wN8WQEAREIC/
lpc_rms=-24.00
pitch_keycenter=e3
sample=Solocello_trill_perf4th_FF_E3.opus
</region>

<region>
end=308379
hikey=e2
hivel=127
lokey=d#2
loop_end=257951
loop_mode=loop_continuous
loop_start=79349
loop_xfade=36346
lovel=1
lpc=aJ78QYuNh8JrZRlCC3oWwNqdL0GVDi3BNc6Gvy0o7b//JQs/3lZXQG0mFUCfNzPAziSKwDfRukDFsxq/dgVjvxSpKMBeTghAo+c+QODmSsDet6I/kiYYwOFEhD/JoNY+
lpc_rms=-22.75
pitch_keycenter=e2
sample=Solocello_trill_perf4th_FF_E2.opus
</region>

<region>
end=300958
hikey=d5
hivel=127
lokey=c#5
loop_end=251743
loop_mode=loop_continuous
loop_start=77439
loop_xfade=35472
lovel=1
lpc=AdCoQCVuFcFHW/hA19K1wDLkl0CfGzHAgmutP+bLQL9ayYY+GdICv8RHiD/6d5q+Tk5iv13Z1z8CU5q/kFHSPvlqHL7OQVE/Rsc3v2QKAT+Ufpm8KkgMv02dOD/fsyg9
lpc_rms=-28.65
pitch_keycenter=d5
sample=Solocello_trill_perf4th_FF_D5.opus
</region>

<region>
end=314259
hikey=d4
hivel=127
lokey=c#4
loop_end=262869
loop_mode=loop_continuous
loop_start=80862
loop_xfade=37039
lovel=1
lpc=OCLNQCs2XsEJ+lNBfMEfwaetDUH5k+LAG4edQNtKT8A7kuA/MgSqvzR47T9p0+y/sl6rPn6NYD82uFO/3InsPnnP3L6rbDk/fQyEvyO4kj+9qSS/TQpuPB82GL0e85k+
lpc_rms=-27.81
pitch_keycenter=d4
sample=Solocello_trill_perf4th_FF_D4.opus
</region>

<region>
end=318414
hikey=d3
hivel=127
lokey=c#3
loop_end=266345
loop_mode=loop_continuous
loop_start=81931
loop_xfade=37529
lovel=1
lpc=mOdtQQCmDcIN+vxB0L6FwSYnVkF+O0vBWG/vQClvncDATMFAzavZwCgP3kATxrDAezQUv0NxrED0l2PAzDX/vYRcZD+ENWE+rEZaPwN24L+gPZI/IfnDv1GY4j93CUa/
lpc_rms=-26.16
pitch_keycenter=d3
sample=Solocello_trill_perf4th_FF_D3.opus
</region>

<region>
end=308647
hikey=d2
hivel=127
lokey=c#2
loop_end=258175
loop_mode=loop_continuous
loop_start=79418
loop_xfade=36378
lovel=1
lpc=1wEaQnGFucJVh5lCBw3xwZzmikEknzrBcmhTPpEgGECDoIPA5U2wQPcngL9W4i2+uM0IwWt4ZUFXP3bA/gPdwLwvfEAfHfo/p5WevzQyzb5xrIc/u7cTwPGLgj/3fW8+
lpc_rms=-23.31
pitch_keycenter=d2
sample=Solocello_trill_perf4th_FF_D2.opus
</region>

<region>
end=297928
hikey=c5
hivel=127
lokey=b4
loop_end=249209
loop_mode=loop_continuous
loop_start=76660
loop_xfade=35114
lovel=1
lpc=sXaOQC7EA8EwfOZAFh6mwLDSjEAH2DvAg+zTP0jcir8UKzY/Ay2Qv9Qrwj8bto6/AJYMPNA0YD/s4qq+gvKKvptRIT69XEs9m7v0OciUET8jBgC+dQUuvjP5jL5d2us+
lpc_rms=-29.14
pitch_keycenter=c5
sample=Solocello_trill_perf4th_FF_C5.opus
</region>

<region>
end=333189
hikey=c4
hivel=127
lokey=b3
loop_end=263339
loop_mode=loop_continuous
loop_start=65168
loop_xfade=39270
lovel=1
lpc=OAKNQfp4F8JQuOhBL+k7weSBEkGOLynBMfUGQWGm68CncMFAfFHKwGtA8ECm1azAy1KRvaiETkCl4xTA8q6vPyOkwb8Nks0/PYjMP16uZMCznANAu3Z6v1HNLD8g45s8
lpc_rms=-25.21
pitch_keycenter=c4
sample=Solocello_trill_perf4th_FF_C4.opus
</region>

<region>
end=302756
hikey=c3
hivel=127
lokey=b2
loop_end=253247
loop_mode=loop_continuous
loop_start=77902
loop_xfade=35683
lovel=1
lpc=VHfNQXKKccIx/ktC7QyrwY6xUkEbg3HBR/EwQZ7s7MB7bM5Afea9wBwTkkC6F8G/+dRrwEqW3UATshDAHxZQwEuQ1T8ObII/N/0vQFxeqMDHFzRAi/0Uv+tJHb7HXjg+
lpc_rms=-23.79
pitch_keycenter=c3
sample=Solocello_trill_perf4th_FF_C3.opus
</region>

<region>
end=314421
hivel=127
key=c2
loop_end=263005
loop_mode=loop_continuous
loop_start=80904
loop_xfade=37058
lovel=1
lpc=zlBYQnQnBMMVZtJC9v/9wVhxqUEaEsbBEKIlQS1zI8F4Uh1BRcEAwJu3K0AUzIg/C6lhwX9opUHc7RDBnl6IwCQpCz/sPMVA2Wp+PwJ0+MD3lpdAzqNmwK/qJ0Ab4By+
lpc_rms=-19.51
sample=Solocello_trill_perf4th_FF_C2.opus
</region>

<region>
end=314522
hikey=a#4
hivel=127
lokey=a4
loop_end=263089
loop_mode=loop_continuous
loop_start=80930
loop_xfade=37070
lovel=1
lpc=1Ry3QBK9K8H0exBBp4TPwCAMvEA09ZHAAKNIQAuYFMDm59Y/WOO1v0Dfrj9V6yK/rOcTv4DEyT+8oJC/iLHePhQA5L4irD4/G6AYvxgVUz9FvyC+GDuVvt7Bbz4rbh48
lpc_rms=-28.61
pitch_keycenter=a#4
sample=Solocello_trill_perf4th_FF_A#4.opus
</region>

<region>
end=298464
hikey=a#3
hivel=127
lokey=a3
loop_end=249657
loop_mode=loop_continuous
loop_start=76798
loop_xfade=35177
lovel=1
lpc=gAZJQRai2sEwTrhBTR1KweN6IEEt9hrBh1fUQJtliMCFT4BAhI6lwKv3z0BDrJ7AcbzUPfn1FEBWwfy+LdXavxwe0T9brOW+3RdkP4qYu7/02KA/Uo2Iv2oGDj8uIQE+
lpc_rms=-27.75
pitch_keycenter=a#3
sample=Solocello_trill_perf4th_FF_A#3.opus
</region>

<region>
end=317787
hikey=a#2
hivel=127
lokey=a2
loop_end=265820
loop_mode=loop_continuous
loop_start=81770
loop_xfade=37455
lovel=1
lpc=DEurQaDXUMKx5zVCwLuZwYpJPkGaZjjBGlfgQPT/4sBLKdxAj7GuwJwN30CIvZrAuepHwPBY3UAZMcC/oN0zwHWjfT5cQBtADzBvvgjcD8DGiCdAwxolwNAm2T9GmeW+
lpc_rms=-26.54
pitch_keycenter=a#2
sample=Solocello_trill_perf4th_FF_A#2.opus
</region>
</group>